REM DIRINDEX 1\2,1\3,1\4,1\5
REM DIRNAME "folder01","folder02","folder03","folder04","folder05"
TITLE ""
FILE "P1Q_j_1791-1800.mp3" MP3
  TRACK 01 AUDIO
    TITLE "0:"
    INDEX 01 00:00:00
  TRACK 02 AUDIO
    TITLE "3:cjc173_0574"
    INDEX 01 00:00:12
  TRACK 03 AUDIO
    TITLE "0:"
    INDEX 01 00:01:49
  TRACK 04 AUDIO
    TITLE "4:cjc173_0575"
    INDEX 01 00:01:69
  TRACK 05 AUDIO
    TITLE "0:"
    INDEX 01 00:06:09
  TRACK 06 AUDIO
    TITLE "5:cjc173_0576"
    INDEX 01 00:06:27
  TRACK 07 AUDIO
    TITLE "0:"
    INDEX 01 00:12:70
  TRACK 08 AUDIO
    TITLE "3:cjc173_0577"
    INDEX 01 00:13:42
  TRACK 09 AUDIO
    TITLE "0:"
    INDEX 01 00:15:02
  TRACK 10 AUDIO
    TITLE "4:cjc173_0578"
    INDEX 01 00:15:22
  TRACK 11 AUDIO
    TITLE "0:"
    INDEX 01 00:19:41
  TRACK 12 AUDIO
    TITLE "5:cjc173_0579"
    INDEX 01 00:19:61
  TRACK 13 AUDIO
    TITLE "0:"
    INDEX 01 00:23:70
  TRACK 14 AUDIO
    TITLE "3:cjc173_0580"
    INDEX 01 00:24:40
  TRACK 15 AUDIO
    TITLE "0:"
    INDEX 01 00:25:71
  TRACK 16 AUDIO
    TITLE "4:cjc173_0581"
    INDEX 01 00:26:16
  TRACK 17 AUDIO
    TITLE "0:"
    INDEX 01 00:33:33
  TRACK 18 AUDIO
    TITLE "5:cjc173_0582"
    INDEX 01 00:33:53
  TRACK 19 AUDIO
    TITLE "0:"
    INDEX 01 00:37:57
  TRACK 20 AUDIO
    TITLE "3:cjc173_0583"
    INDEX 01 00:38:30
  TRACK 21 AUDIO
    TITLE "0:"
    INDEX 01 00:39:48
  TRACK 22 AUDIO
    TITLE "4:cjc173_0584"
    INDEX 01 00:39:69
  TRACK 23 AUDIO
    TITLE "0:"
    INDEX 01 00:44:04
  TRACK 24 AUDIO
    TITLE "5:cjc173_0585"
    INDEX 01 00:44:23
  TRACK 25 AUDIO
    TITLE "0:"
    INDEX 01 00:48:19
  TRACK 26 AUDIO
    TITLE "3:cjc173_0586"
    INDEX 01 00:48:64
  TRACK 27 AUDIO
    TITLE "0:"
    INDEX 01 00:50:22
  TRACK 28 AUDIO
    TITLE "4:cjc173_0587"
    INDEX 01 00:50:42
  TRACK 29 AUDIO
    TITLE "0:"
    INDEX 01 00:57:38
  TRACK 30 AUDIO
    TITLE "5:cjc173_0588"
    INDEX 01 00:57:57
  TRACK 31 AUDIO
    TITLE "0:"
    INDEX 01 01:02:13
  TRACK 32 AUDIO
    TITLE "3:cjc173_0589"
    INDEX 01 01:02:60
  TRACK 33 AUDIO
    TITLE "0:"
    INDEX 01 01:04:12
  TRACK 34 AUDIO
    TITLE "4:cjc173_0590"
    INDEX 01 01:04:36
  TRACK 35 AUDIO
    TITLE "0:"
    INDEX 01 01:09:33
  TRACK 36 AUDIO
    TITLE "5:cjc173_0591"
    INDEX 01 01:09:53
  TRACK 37 AUDIO
    TITLE "0:"
    INDEX 01 01:15:30
  TRACK 38 AUDIO
    TITLE "3:cjc173_0592"
    INDEX 01 01:16:02
  TRACK 39 AUDIO
    TITLE "0:"
    INDEX 01 01:17:27
  TRACK 40 AUDIO
    TITLE "4:cjc173_0593"
    INDEX 01 01:17:46
  TRACK 41 AUDIO
    TITLE "0:"
    INDEX 01 01:22:47
  TRACK 42 AUDIO
    TITLE "5:cjc173_0594"
    INDEX 01 01:22:67
  TRACK 43 AUDIO
    TITLE "0:"
    INDEX 01 01:27:04
  TRACK 44 AUDIO
    TITLE "3:cjc173_0595"
    INDEX 01 01:27:49
  TRACK 45 AUDIO
    TITLE "0:"
    INDEX 01 01:29:00
  TRACK 46 AUDIO
    TITLE "4:cjc173_0596"
    INDEX 01 01:29:22
  TRACK 47 AUDIO
    TITLE "0:"
    INDEX 01 01:31:52
  TRACK 48 AUDIO
    TITLE "5:cjc173_0597"
    INDEX 01 01:31:72
  TRACK 49 AUDIO
    TITLE "0:"
    INDEX 01 01:36:08
  TRACK 50 AUDIO
    TITLE "3:cjc173_0598"
    INDEX 01 01:36:53
  TRACK 51 AUDIO
    TITLE "0:"
    INDEX 01 01:38:15
  TRACK 52 AUDIO
    TITLE "4:cjc173_0599"
    INDEX 01 01:38:35
  TRACK 53 AUDIO
    TITLE "0:"
    INDEX 01 01:41:19
  TRACK 54 AUDIO
    TITLE "5:cjc173_0600"
    INDEX 01 01:41:37
  TRACK 55 AUDIO
    TITLE "0:"
    INDEX 01 01:45:70
  TRACK 56 AUDIO
    TITLE "3:cjc173_0601"
    INDEX 01 01:46:40
  TRACK 57 AUDIO
    TITLE "0:"
    INDEX 01 01:47:71
  TRACK 58 AUDIO
    TITLE "4:cjc173_0602"
    INDEX 01 01:48:15
  TRACK 59 AUDIO
    TITLE "0:"
    INDEX 01 01:52:45
  TRACK 60 AUDIO
    TITLE "5:cjc173_0603"
    INDEX 01 01:52:62
  TRACK 61 AUDIO
    TITLE "0:"
    INDEX 01 01:57:42
